Coordinates
version=1
nRows=15
nColumns=19
inDegrees=yes

Units are S.I. units (second, meters, Newtons, ...)
If the header above contains a line with 'inDegrees', this indicates whether rotational values are in degrees (yes) or radians (no).

endheader
time	subtalar_angle_l	subtalar_angle_r	pelvis_list	pelvis_rotation	pelvis_tilt	pelvis_tx	pelvis_ty	pelvis_tz	hip_flexion_l	hip_adduction_l	hip_rotation_l	hip_flexion_r	hip_adduction_r	hip_rotation_r	knee_flexion_l	knee_flexion_r	ankle_angle_l	ankle_angle_r
      3.07000000	      3.63220145	      8.25379164	     85.72054630	     -4.02311027	      2.27267253	     -0.74475349	     -0.65985610	      0.66236556	     29.48072808	      4.78861438	     -6.12730090	    -12.89438679	      3.80621257	     25.28971976	    -45.55580713	      2.75321190	    -12.07047369	    -24.59907389
      3.08000000	      3.58940344	      8.30789583	     85.42153282	     -4.74397970	      2.50192361	     -0.73648754	     -0.65969924	      0.66144757	     29.91858748	      5.20147321	     -6.70825888	    -14.01517514	      3.84047839	     25.77020970	    -43.98022401	      2.99733271	    -12.11071777	    -24.65070904
      3.09000000	      3.45821070	      8.36040902	     85.09698775	     -5.52542418	      2.81049210	     -0.72797082	     -0.65955190	      0.66043375	     29.97371398	      5.65988336	     -7.30481769	    -15.17674129	      3.88094905	     26.35783836	    -42.16417341	      3.10523523	    -12.25594851	    -24.74073146
      3.10000000	      2.92620176	      8.30104305	     84.77225801	     -6.26422109	      3.07014830	     -0.71917136	     -0.65941734	      0.65934531	     29.76435086	      6.04240926	     -8.08190576	    -16.27582880	      3.90961499	     26.88584544	    -40.12690495	      3.14904391	    -12.73542986	    -24.98084456
      3.11000000	      2.80809259	      8.41642541	     84.41284831	     -6.98581038	      3.37554090	     -0.71006629	     -0.65932261	      0.65814424	     29.23750839	      6.44175510	     -8.90123976	    -17.39719965	      3.96813841	     27.41103118	    -37.99943686	      3.08653322	    -12.86635487	    -25.01324550
      3.12000000	      2.55929656	      8.55488360	     84.06532908	     -7.68376950	      3.68848002	     -0.70064698	     -0.65924957	      0.65686164	     28.42640768	      6.80002560	     -9.75753806	    -18.48430304	      4.01227699	     27.89997768	    -35.81923930	      2.90281284	    -13.11369656	    -25.13975089
      3.13000000	      2.21486520	      8.71519370	     83.73916561	     -8.33928349	      3.99306209	     -0.69092305	     -0.65920344	      0.65550076	     27.38595700	      7.10669646	    -10.62470529	    -19.51079105	      4.04248533	     28.33636392	    -33.67522915	      2.59113609	    -13.39027670	    -25.33161809
      3.14000000	      1.79574562	      8.89759162	     83.45689585	     -8.94300282	      4.27392452	     -0.68090883	     -0.65917941	      0.65407750	     26.17266698	      7.34322626	    -11.45928307	    -20.44300691	      4.04793120	     28.70832080	    -31.64600663	      2.13345160	    -13.64561485	    -25.59014099
      3.15000000	      1.32300823	      9.10464070	     83.24734678	     -9.48024910	      4.51143165	     -0.67063176	     -0.65917459	      0.65261615	     24.85425155	      7.48601398	    -12.20953790	    -21.24136485	      4.01470544	     28.99271382	    -29.79483755	      1.51393945	    -13.84144462	    -25.92788745
      3.16000000	      0.89718550	      9.31120498	     83.13617292	     -9.94641339	      4.67958154	     -0.66012546	     -0.65916428	      0.65115037	     23.49715087	      7.50335633	    -12.86237176	    -21.86482419	      3.92537507	     29.17787231	    -28.17203747	      0.73563736	    -13.92542291	    -26.32334924
      3.17000000	      0.44324276	      9.55015651	     83.15501229	    -10.28443555	      4.81104123	     -0.64944844	     -0.65917753	      0.64969960	     22.13301167	      7.37569368	    -13.35045216	    -22.32931828	      3.78355879	     29.23114417	    -26.79146021	     -0.22452107	    -13.91283913	    -26.86280599
      3.18000000	     -0.07226828	      9.88467876	     83.32590726	    -10.54778998	      4.81395930	     -0.63864585	     -0.65915700	      0.64832912	     20.87367710	      7.09964386	    -13.63605765	    -22.51371679	      3.55924329	     29.16314785	    -25.65191251	     -1.37558370	    -13.78985306	    -27.62732179
      3.19000000	     -0.16775208	      9.98453604	     83.65021455	    -10.62438468	      4.76200476	     -0.62780014	     -0.65912895	      0.64705241	     19.65840996	      6.61205222	    -13.94625268	    -22.51483862	      3.28815986	     28.95180069	    -24.70243781	     -2.67537734	    -13.59835465	    -28.15513122
      3.20000000	     -0.26360341	     10.29191713	     84.15676277	    -10.60658831	      4.61774848	     -0.61693799	     -0.65904138	      0.64591873	     18.57114881	      5.97783548	    -14.01127892	    -22.25620361	      2.92435461	     28.59964269	    -23.93371227	     -4.17455873	    -13.21368552	    -29.22545446
      3.21000000	     -0.13999826	     10.28365024	     84.83889522	    -10.40058871	      4.41680729	     -0.60614717	     -0.65891793	      0.64494988	     17.54515559	      5.14654501	    -14.11048836	    -21.77216359	      2.50591884	     28.00031972	    -23.22964570	     -5.88451050	    -12.96456838	    -29.89697636
